<svg width="393" height="424" viewBox="0 0 393 424" fill="none" xmlns="http://www.w3.org/2000/svg">
<path d="M280.828 158.534C273.855 199.557 314.224 285.759 267.196 302.123C220.169 318.487 199.319 346.5 185.622 288.134C179.226 260.877 176.368 209.905 185.622 186.411C213.715 183.83 229.047 161.774 245.973 152.822C284.958 132.204 287.539 152.822 280.828 158.534Z" fill="#EC9630"/>
<path d="M142.988 130.139C137.825 83.6761 66.0653 166.794 99.1059 224.098L102.203 296.891L282.894 310.83L283.396 308.794C306.731 214.152 330.111 119.329 274.117 163.696C203.624 219.553 148.005 175.292 142.988 130.139Z" fill="#EFBC3A"/>
<path d="M293.218 224.523C282.145 176.556 278.641 251.021 210.617 223.7C138.857 177.119 100.621 138.593 93.7048 224.523C93.7048 290.696 129.048 324.962 204.905 324.962C329.872 306.7 299.929 275.725 293.218 224.523Z" fill="#EC9630"/>
<path fill-rule="evenodd" clip-rule="evenodd" d="M127.258 0.5586C106.709 0.558601 87.7221 11.5209 77.448 29.3162L8.20556 149.248C-2.06852 167.043 -2.06852 188.967 8.20557 206.763L77.448 326.694C87.7221 344.489 106.709 355.452 127.258 355.452H265.742C286.291 355.452 305.278 344.489 315.552 326.694L384.794 206.763C395.069 188.967 395.069 167.043 384.794 149.248L315.552 29.3161C305.278 11.5209 286.291 0.558594 265.742 0.558594L127.258 0.5586ZM280.312 276.241V77.9973H234.55V153.519H158.806V77.9973H113.044V276.241H158.806V197.573H234.55V276.241H280.312Z" fill="white"/>
<rect x="173" y="293.059" width="47" height="47" rx="7.5" stroke="#E0E0E0"/>
<circle cx="196.5" cy="316.559" r="12" fill="#E0E0E0"/>
<circle cx="2" cy="2" r="2" transform="matrix(1 0 0 -1 189.5 318.559)" fill="#272E3B"/>
<circle cx="2" cy="2" r="2" transform="matrix(1 0 0 -1 199.5 318.559)" fill="#272E3B"/>
<rect x="226.777" y="332.987" width="4" height="13" rx="2" transform="rotate(-60 226.777 332.987)" fill="#20222A"/>
<rect x="232.777" y="322.595" width="4" height="13" rx="2" transform="rotate(-60 232.777 322.595)" fill="#20222A"/>
<path d="M235.17 342.451C234.213 341.898 233.885 340.675 234.437 339.719L244.437 322.398C244.99 321.442 246.213 321.114 247.17 321.666L255.83 326.666C261.569 329.98 263.536 337.319 260.222 343.058C256.908 348.798 249.569 350.764 243.83 347.451L235.17 342.451Z" fill="#F4C038"/>
<path d="M257.5 342.559C269.667 348.059 292.5 364.859 286.5 388.059C280.5 411.259 307.667 419.725 322 421.059" stroke="#F4C038" stroke-width="4" stroke-linecap="round"/>
<path d="M257.5 342.559C269.667 348.059 292.5 364.859 286.5 388.059C280.5 411.259 307.667 419.725 322 421.059" stroke="url(#paint0_linear_101_12418)" stroke-width="4" stroke-linecap="round"/>
<defs>
<linearGradient id="paint0_linear_101_12418" x1="268.5" y1="351.559" x2="294" y2="418.059" gradientUnits="userSpaceOnUse">
<stop stop-color="#272E3B" stop-opacity="0"/>
<stop offset="0.972655" stop-color="#20222A"/>
</linearGradient>
</defs>
</svg>
