<svg width="115" height="21" viewBox="0 0 115 21" fill="none" xmlns="http://www.w3.org/2000/svg">
<g id="HotSkins">
<path d="M16.4401 0.706417V20.2484H11.9423V12.4936H4.49776V20.2484H0V0.706417H4.49776V8.15098H11.9423V0.706417H16.4401Z" fill="white"/>
<path d="M19.2439 13.114C19.2439 12.0594 19.43 11.0875 19.8023 10.1982C20.1952 9.28835 20.7225 8.50253 21.3842 7.84079C22.046 7.15837 22.8111 6.63105 23.6796 6.25882C24.5688 5.86591 25.5201 5.66946 26.5334 5.66946C27.5467 5.66946 28.4876 5.86591 29.3561 6.25882C30.2453 6.63105 31.0208 7.15837 31.6825 7.84079C32.3443 8.50253 32.8613 9.28835 33.2335 10.1982C33.6264 11.0875 33.8228 12.0594 33.8228 13.114C33.8228 14.1687 33.6264 15.1509 33.2335 16.0608C32.8613 16.95 32.3443 17.7359 31.6825 18.4183C31.0208 19.08 30.2453 19.6073 29.3561 20.0002C28.4876 20.3725 27.5467 20.5586 26.5334 20.5586C25.5201 20.5586 24.5688 20.3725 23.6796 20.0002C22.8111 19.6073 22.046 19.08 21.3842 18.4183C20.7225 17.7359 20.1952 16.95 19.8023 16.0608C19.43 15.1509 19.2439 14.1687 19.2439 13.114ZM29.6353 13.114C29.6353 12.018 29.3354 11.1495 28.7357 10.5084C28.136 9.86737 27.4019 9.54684 26.5334 9.54684C25.6648 9.54684 24.9307 9.86737 24.331 10.5084C23.7313 11.1495 23.4315 12.018 23.4315 13.114C23.4315 14.21 23.7313 15.0786 24.331 15.7196C24.9307 16.3607 25.6648 16.6812 26.5334 16.6812C27.4019 16.6812 28.136 16.3607 28.7357 15.7196C29.3354 15.0786 29.6353 14.21 29.6353 13.114Z" fill="white"/>
<path d="M37.5536 9.85703H35.3823V6.28984H36.4679C37.6053 6.28984 38.174 5.72116 38.174 4.5838V2.56756H41.7412V5.97965H44.688V9.85703H41.7412V14.5099C41.7412 15.1303 41.917 15.6266 42.2685 15.9988C42.6201 16.3503 43.0647 16.5261 43.6023 16.5261C43.7678 16.5261 43.9125 16.5261 44.0366 16.5261C44.1607 16.5054 44.2744 16.4848 44.3778 16.4641C44.4812 16.4434 44.5846 16.4124 44.688 16.371V20.0933C44.5226 20.1553 44.3364 20.207 44.1296 20.2484C43.7161 20.3518 43.2301 20.4035 42.6718 20.4035C41.0381 20.4035 39.7766 19.9589 38.8874 19.0697C37.9982 18.1598 37.5536 16.8466 37.5536 15.1303V9.85703Z" fill="white"/>
<path d="M49.9739 5.51134C49.9739 4.84491 50.1103 4.21383 50.3829 3.61809C50.6656 3.02234 51.0695 2.49728 51.5946 2.0429C52.1196 1.58852 52.7558 1.23007 53.503 0.967536C54.2502 0.694908 55.0882 0.558594 56.0172 0.558594C56.825 0.558594 57.5772 0.705005 58.274 0.997828C58.9808 1.28055 59.5967 1.6693 60.1218 2.16407C60.6569 2.65884 61.076 3.23439 61.3789 3.89072C61.6919 4.53694 61.8686 5.23366 61.909 5.98086H60.3641C60.2833 4.81967 59.8491 3.86042 59.0615 3.10312C58.274 2.33573 57.2592 1.95203 56.0172 1.95203C55.3104 1.95203 54.6793 2.053 54.124 2.25495C53.5686 2.4468 53.0991 2.70933 52.7154 3.04254C52.3317 3.36565 52.0338 3.7443 51.8218 4.17849C51.6198 4.61267 51.5188 5.05696 51.5188 5.51134C51.5188 6.3999 51.7814 7.09157 52.3064 7.58634C52.8315 8.07101 53.4929 8.46986 54.2906 8.78288C55.0882 9.0858 55.9465 9.35842 56.8654 9.60076C57.7842 9.833 58.6425 10.1561 59.4402 10.5701C60.2379 10.9841 60.8993 11.5294 61.4243 12.2059C61.9595 12.8723 62.2271 13.7962 62.2271 14.9776C62.2271 15.7652 62.0857 16.4922 61.803 17.1586C61.5202 17.8149 61.1113 18.3804 60.5761 18.855C60.041 19.3295 59.3897 19.7082 58.6223 19.9909C57.8549 20.2635 56.9865 20.3999 56.0172 20.3999C55.0479 20.3999 54.1795 20.2635 53.4121 19.9909C52.6447 19.7082 51.9884 19.3194 51.4431 18.8247C50.8979 18.3299 50.4738 17.7392 50.1708 17.0526C49.8679 16.366 49.6963 15.6238 49.6559 14.8261H51.2159C51.3775 16.0681 51.8672 17.0778 52.6851 17.8553C53.503 18.6227 54.6137 19.0064 56.0172 19.0064C57.5015 19.0064 58.6476 18.6328 59.4553 17.8856C60.2631 17.1283 60.667 16.159 60.667 14.9776C60.667 14.0486 60.4045 13.3216 59.8794 12.7966C59.3544 12.2614 58.693 11.8323 57.8953 11.5092C57.0976 11.1759 56.2393 10.8932 55.3205 10.661C54.4016 10.4186 53.5434 10.1006 52.7457 9.70678C51.948 9.31299 51.2866 8.79802 50.7615 8.16189C50.2365 7.51566 49.9739 6.63214 49.9739 5.51134Z" fill="white"/>
<path d="M77.2731 20.2484H75.4101L68.5944 13.1146V20.2484H67.1859V0.710054H68.5944V13.1146L74.7892 6.60185H76.6521L70.4423 13.1146L77.2731 20.2484Z" fill="white"/>
<path d="M82.5348 20.2484H81.1414V6.60185H82.5348V20.2484ZM80.8233 2.25495C80.8233 1.94193 80.9243 1.68445 81.1263 1.4825C81.3383 1.27046 81.6008 1.16443 81.9138 1.16443C82.2269 1.16443 82.4843 1.27046 82.6863 1.4825C82.8882 1.68445 82.9892 1.94193 82.9892 2.25495C82.9892 2.56796 82.8882 2.83049 82.6863 3.04254C82.4843 3.24449 82.2269 3.34546 81.9138 3.34546C81.6008 3.34546 81.3383 3.24449 81.1263 3.04254C80.9243 2.83049 80.8233 2.56796 80.8233 2.25495Z" fill="white"/>
<path d="M94.6274 6.45039C95.3948 6.45039 96.1117 6.59175 96.7781 6.87448C97.4547 7.14711 98.0302 7.53585 98.5048 8.04072C98.9895 8.54559 99.3681 9.15143 99.6407 9.85824C99.9235 10.5651 100.065 11.3426 100.065 12.1907V20.2484H98.6714V12.1907C98.6714 11.5748 98.5603 11.0043 98.3382 10.4792C98.1261 9.94407 97.8283 9.47959 97.4446 9.0858C97.0609 8.692 96.6166 8.38908 96.1117 8.17703C95.6068 7.95489 95.0616 7.84382 94.4759 7.84382C93.86 7.84382 93.2845 7.95489 92.7493 8.17703C92.2242 8.38908 91.7648 8.692 91.371 9.0858C90.9873 9.47959 90.6844 9.93902 90.4622 10.4641C90.2502 10.9891 90.1442 11.5647 90.1442 12.1907V20.2484H88.7356V6.60185H89.6747L90.1442 8.61627H90.2956C90.5481 8.22247 90.8762 7.85897 91.2801 7.52576C91.6335 7.25313 92.0829 7.00574 92.6281 6.7836C93.1734 6.56146 93.8398 6.45039 94.6274 6.45039Z" fill="white"/>
<path d="M114.641 16.371C114.641 16.9062 114.525 17.4211 114.293 17.9159C114.071 18.4006 113.758 18.8297 113.354 19.2033C112.95 19.5668 112.46 19.8597 111.885 20.0818C111.319 20.2938 110.688 20.3999 109.992 20.3999C109.244 20.3999 108.573 20.2938 107.977 20.0818C107.391 19.8597 106.887 19.5567 106.462 19.173C106.038 18.7893 105.7 18.3451 105.448 17.8402C105.205 17.3353 105.064 16.7951 105.024 16.2196H106.417C106.579 17.0879 106.937 17.7695 107.492 18.2643C108.058 18.759 108.891 19.0064 109.992 19.0064C111.001 19.0064 111.794 18.7439 112.369 18.2188C112.955 17.6938 113.248 17.0778 113.248 16.371C113.248 15.7551 113.051 15.2805 112.657 14.9473C112.263 14.6141 111.774 14.3617 111.188 14.19C110.612 14.0082 109.976 13.8517 109.28 13.7205C108.593 13.5892 107.957 13.3974 107.371 13.1449C106.796 12.8925 106.311 12.5391 105.917 12.0847C105.534 11.6303 105.342 10.9891 105.342 10.1612C105.342 9.66639 105.443 9.19182 105.645 8.73744C105.857 8.28306 106.149 7.88926 106.523 7.55605C106.907 7.21274 107.376 6.94516 107.932 6.75331C108.497 6.55136 109.133 6.45039 109.84 6.45039C110.506 6.45039 111.112 6.56146 111.658 6.7836C112.203 6.99565 112.682 7.27837 113.096 7.63178C113.51 7.97509 113.834 8.38403 114.066 8.85861C114.308 9.33318 114.449 9.8229 114.49 10.3278H113.096C112.935 9.62095 112.581 9.03026 112.036 8.55569C111.501 8.08111 110.769 7.84382 109.84 7.84382C108.83 7.84382 108.058 8.07606 107.523 8.54054C106.998 9.00502 106.735 9.54522 106.735 10.1612C106.735 10.7569 106.932 11.2062 107.326 11.5092C107.72 11.8121 108.204 12.0494 108.78 12.221C109.355 12.3826 109.992 12.534 110.688 12.6754C111.385 12.8067 112.021 13.0036 112.597 13.2661C113.172 13.5185 113.657 13.882 114.051 14.3566C114.444 14.8312 114.641 15.5027 114.641 16.371Z" fill="white"/>
</g>
</svg>
