<svg width="45" height="41" viewBox="0 0 45 41" fill="none" xmlns="http://www.w3.org/2000/svg">
<g id="Frame 1">
<path id="Ellipse 1" d="M31.5698 18.3492C30.7845 22.9692 35.3307 32.677 30.0346 34.5199C24.7385 36.3628 22.3904 39.5175 20.8479 32.9444C20.1276 29.8748 19.8058 24.1346 20.8479 21.4888C24.0116 21.1981 25.7383 18.7142 27.6445 17.7061C32.0349 15.3841 32.3256 17.7061 31.5698 18.3492Z" fill="#EC9630"/>
<path id="Vector 1" d="M16.0463 15.1515C15.4649 9.91899 7.38352 19.2795 11.1045 25.7329L11.4533 33.9306L31.8021 35.5004L31.8586 35.2712C34.4866 24.6128 37.1196 13.9341 30.8138 18.9306C22.8749 25.221 16.6113 20.2365 16.0463 15.1515Z" fill="#EFBC3A"/>
<path id="Ellipse 2" d="M32.9651 25.7809C31.7182 20.379 31.3235 28.7649 23.6628 25.6881C15.5814 20.4423 11.2754 16.1036 10.4965 25.7809C10.4965 33.233 14.4768 37.092 23.0196 37.092C37.093 35.0354 33.721 31.547 32.9651 25.7809Z" fill="#EC9630"/>
<path id="Subtract" fill-rule="evenodd" clip-rule="evenodd" d="M14.2751 0.558594C11.961 0.558594 9.8227 1.79314 8.66566 3.79719L0.867778 17.3035C-0.28926 19.3076 -0.289259 21.7767 0.867779 23.7807L8.66566 37.287C9.8227 39.2911 11.961 40.5256 14.2751 40.5256H29.8708C32.1849 40.5256 34.3232 39.2911 35.4803 37.287L43.2781 23.7807C44.4352 21.7767 44.4352 19.3076 43.2781 17.3035L35.4803 3.79719C34.3232 1.79314 32.1849 0.558594 29.8708 0.558594H14.2751ZM31.5116 31.6051V9.2795H26.3581V17.7845H17.828V9.2795H12.6744V31.6051H17.828V22.7457H26.3581V31.6051H31.5116Z" fill="white"/>
</g>
</svg>
